<svg xmlns="http://www.w3.org/2000/svg" viewBox="0 0 362.49 119.19"><defs><style>.cls-1{fill:#fff;}</style></defs><title>unicef_logo</title><g id="Layer_2" data-name="Layer 2"><g id="Layer_2-2" data-name="Layer 2"><rect class="cls-1" x="107" y="3.37" width="11.59" height="10.55"/><rect class="cls-1" x="107.94" y="25.85" width="9.74" height="51.43"/><path class="cls-1" d="M34.53,52.36a38,38,0,0,1-2,12.07c-2,5.31-7.45,7.37-11.44,7.37-9.33,0-11.38-6.54-11.38-15.45V25.91H0V60.33C0,70.65,6.18,78.85,16.9,78.85c7.16,0,13.75-2.66,17.63-9.11h.18v7.59h9.53V25.91H34.53Z"/><path class="cls-1" d="M79.42,24.41c-5.1,0-12.28,2.64-15.57,9.1h-.21v-7.6H54.15V77.33h9.7V49.4c0-10.06,2.68-12.31,4.13-13.76a13.35,13.35,0,0,1,9.4-3.77c8.2,0,11.77,4.6,11.77,13.11V77.33h9.72V41.8C98.87,25.33,83,24.41,79.42,24.41Z"/><path class="cls-1" d="M147.92,71.61c-9.26,0-12.82-8-12.82-20s3.56-20.06,12.82-20.06c6.9,0,10,4.46,10.49,10.89H168c-.49-11.09-8.63-17.9-19.4-17.9C132.46,24.52,124.93,37,124.93,52s6.51,26.64,22.87,26.64c11.31,0,19.81-7,20.64-18.49h-9.63C158.29,67.46,154.3,71.61,147.92,71.61Z"/><path class="cls-1" d="M196.5,24.52C180.35,24.52,172.79,37,172.79,52s6.53,26.64,22.87,26.64c12.22,0,21.17-5.79,22.68-17.38H208.18c-1.09,7.43-4.87,10.37-12.4,10.37-9.86,0-13.5-9.27-12.8-18.19h36V48.63C219,34.45,211.75,24.84,196.5,24.52ZM183,46.7c0-8.39,4.75-15.17,12.8-15.17,9.37,0,13.22,6.61,13,15.17Z"/><path class="cls-1" d="M229.91,15.08v11h-8.79v6.66h8.79V77.12h9.67V32.76h11.8V26.1h-11.8V16.7c-.3-5.6,2.85-7,8.33-7,1.63,0,3.26.22,4.89.31v-8a40.26,40.26,0,0,0-6.9-1C238.67.94,230.24,3.87,229.91,15.08Z"/><path class="cls-1" d="M312.18,68.5a34.25,34.25,0,1,0-34.25-34.27A34.27,34.27,0,0,0,312.18,68.5Zm26.69-53.35a41.67,41.67,0,0,1-5.47,3.17,38,38,0,0,0-4.08-6.39,41.49,41.49,0,0,0,4-2.83A31.69,31.69,0,0,1,338.87,15.15ZM324.49,3.77a33.94,33.94,0,0,1,7.69,4.41,31.61,31.61,0,0,1-3.8,2.67,36.17,36.17,0,0,0-5.64-5.21A17.21,17.21,0,0,0,324.49,3.77Zm2.66,7.78A31.71,31.71,0,0,1,321.37,14a42.93,42.93,0,0,0-2.85-5.57,16.49,16.49,0,0,0,3.12-1.86A35.38,35.38,0,0,1,327.15,11.55Zm-4-8.3c-.5.55-1,1.07-1.52,1.55a36.62,36.62,0,0,0-5.74-3.19A32,32,0,0,1,323.1,3.25Zm-2.69,2.46a15.59,15.59,0,0,1-2.62,1.47,49.58,49.58,0,0,0-3.32-4.61A35.12,35.12,0,0,1,320.41,5.71Zm-7.53-2.9a50.64,50.64,0,0,1,3.54,4.85,13.36,13.36,0,0,1-3.54.62Zm0,6.86a16.37,16.37,0,0,0,4.31-.75A47,47,0,0,1,320,14.34a31.26,31.26,0,0,1-7.13,1Zm-1.42-6.79v5.4a13.07,13.07,0,0,1-3.5-.62A51.73,51.73,0,0,1,311.46,2.88Zm-4.85,4.3A17.14,17.14,0,0,1,304,5.71a33.22,33.22,0,0,1,5.9-3.13A51.28,51.28,0,0,0,306.61,7.18Zm2-5.59a37.34,37.34,0,0,0-5.78,3.2,14.53,14.53,0,0,1-1.49-1.55A32.13,32.13,0,0,1,308.59,1.59Zm-8.7,2.18a17.2,17.2,0,0,0,1.77,1.86c-1.39,1-4.37,3.67-4.37,3.67a6.53,6.53,0,0,1,.76.15c.26,0,.82.21.82.21s2.66-2.22,3.89-3.12a15.5,15.5,0,0,0,3.1,1.85c-.56,1-2.07,3.81-2.07,3.81l.67.42A3.65,3.65,0,0,1,305,13s1.63-3.09,2.24-4.09a16.22,16.22,0,0,0,4.27.75v5.66c-.82,0-2.87-.11-3.73-.19l-.51-.05.3.43a7.82,7.82,0,0,1,.53.95l.07.13h.14c.61,0,2.47.11,3.2.13V27h1.42V24.66c2.07-.12,3.85-.26,5.92-.43h.09l1.87-1.64-1,.09c-2.19.29-4.17.43-5.94.53,0,0-.59,0-.91.05V16.74a32.29,32.29,0,0,0,7.69-1.09c.67,1.71,2,5.82,2,5.82l1.36-.44s-1.29-4.06-2-5.77a32.2,32.2,0,0,0,6.15-2.61,33.68,33.68,0,0,1,4.09,6.28c-1,.48-2.84,1.13-2.84,1.13a15.78,15.78,0,0,1,2.58.5l.84-.36c.14.29.39.9.39.9l1.85.82-.21-.52L334,19.6a52.48,52.48,0,0,0,5.69-3.3,32.8,32.8,0,0,1-7.62,44.1c-4.58-2.49-4.67-6-4.41-7.22s1.14-.73,1.73-.73c3,0,6.1-.9,10-4.87,4.38-4.47,5.78-14.4-1-20.88-7.25-7-15-5.74-19.93.51-1,1.32-3.5,2.25-5.65,2.18-3.19-.12-1.21,2.37-1.21,2.9s-.47.89-.74.81c-1.08-.32-.66,1.27-.66,1.75a.75.75,0,0,1-.67.75c-1.33,0-1,1.22-.94,1.55a1.11,1.11,0,0,1-.54,1.11,3,3,0,0,0-.9,2.11c0,1.45,1.33,2.47,3.54,4.14s2.52,3.23,2.54,4.38a14.75,14.75,0,0,0,.63,4.16c.63,1.44.54,4.14-2.52,4.25-3.75.16-10.42,3.15-11,3.35a13.39,13.39,0,0,1-7.09.48,30.43,30.43,0,0,1-3.38-2.74c-.44-1.47.33-3.13,1.07-4.23,1.29,1.27,3.15,1.2,4.18,1.23a52.26,52.26,0,0,0,6.95-1,1.78,1.78,0,0,1,1.46,0c2,.72,4.67.92,5.76-2.83s-1.52-2.7-1.82-2.55-.79.13-.63-.2c.49-1-.23-.85-.62-.9-1.06-.1-2.43,1-2.87,1.44a1,1,0,0,1-1.05.28c-1.4-.7-5.55.3-6.86-2a78.26,78.26,0,0,0-1.63-11.33,1.55,1.55,0,0,1,.17-1.52c1-1.56,3.91.12,5.5.08a2.77,2.77,0,0,0,2.72-1.45c.52-.61.87-.27,1.15-.44s0-.66.14-.91.25-.12.58-.41,0-.88.12-1.13c.46-.68,1.72-.13,1-2a3,3,0,0,1,.73-2.84c.91-1.17,4.45-6.14-1.77-11.31-6-4.94-12-4.54-15.86-.34s-1.93,10.37-1.53,12a3.43,3.43,0,0,1-2.13,3.7,30.18,30.18,0,0,0-5.29,3.7A32.68,32.68,0,0,1,299.89,3.77Z"/><path class="cls-1" d="M268.47,21.57l.21,1,.65-.58c2.82-2.59,4.92-6.93,5.78-12l.26-1.4-.56.48-.54.45c-2,1.79-6.59,6.49-5.87,11.66C268.4,21.24,268.47,21.57,268.47,21.57Z"/><path class="cls-1" d="M267,35.9l.33.44.46-2.19c.47-3.85-.16-11.92-1.6-15.54l-.48-1.22-.22.61-.21.62a24.59,24.59,0,0,0-1.22,5.07c-.42,3.4-.33,8.22,2.61,11.78Z"/><path class="cls-1" d="M268.89,49.09l.84.55-.05-1c-.11-3.24-3.89-12.95-6.74-16.4l-.77-1,0,.64-.08.62C261.82,36,262,44.56,268.89,49.09Z"/><path class="cls-1" d="M277.26,63.26l-.37-1c-1.33-3.68-8.28-12.23-12.71-15l-1-.64.14.6.12.58c1,4.91,5.67,12.86,12.87,15.16Z"/><path class="cls-1" d="M269.5,29s0,1.1,0,1.1l.8-.63c2.89-2.41,6.5-8.52,7.57-12l.4-1.27-.56.35-.58.35C271.81,20.11,269.31,24.08,269.5,29Z"/><path class="cls-1" d="M275,26.8l-.39.37-.4.39c-1.35,1.33-5.8,6-5.43,11.87a11.26,11.26,0,0,0,.6,2.86l.33.94.59-.81c2.1-3,4.91-10.85,4.75-14.5Z"/><path class="cls-1" d="M273.88,54.93l.37-.72c1-1.82,1.74-7.72,1.63-12.39a17.94,17.94,0,0,0-.47-3.94l-.32-1-.28.45-.3.45a17.06,17.06,0,0,0-3.31,9.88,12.3,12.3,0,0,0,2.19,6.61Z"/><path class="cls-1" d="M277.42,48.16l-.14.46a18.82,18.82,0,0,0-.95,6.26,12.38,12.38,0,0,0,5.94,10.53l.68.4.11-.84a6.7,6.7,0,0,0,.07-.72c-.12-3.68-2.84-12.94-5-15.79l-.58-.78Z"/><path class="cls-1" d="M287.07,72.44l.75-.12-.42-.65c-1.71-2.53-12.82-8.83-16.76-9.46L269.59,62l.28.46.28.48C273,67.81,277.93,74,287.07,72.44Z"/><path class="cls-1" d="M284.51,59.28l-.89-.45.07.48.07.51c.89,5.47,3.12,12.64,12.38,11.86l.58-.05-.14-.59C296,68.55,287.47,61.33,284.51,59.28Z"/><path class="cls-1" d="M355.17,22l.63.58s.21-1,.23-1,.07-.33.07-.35c.7-5.17-3.89-9.87-5.9-11.66l-.51-.45-.56-.48.26,1.4C350.23,15.08,352.32,19.42,355.17,22Z"/><path class="cls-1" d="M357.15,36.34l.35-.44.33-.42c3-3.57,3.05-8.39,2.61-11.78a23.44,23.44,0,0,0-1.21-5.08L359,18l-.26-.61-.47,1.22c-1.39,3.62-2.09,11.69-1.58,15.54Z"/><path class="cls-1" d="M354.77,49.64l.82-.54c6.93-4.54,7.09-13.11,6.83-16.56l0-.62-.07-.64-.77,1c-2.87,3.46-6.65,13.17-6.76,16.41Z"/><path class="cls-1" d="M347.59,62.3l-.35,1,1-.31c7.18-2.3,11.87-10.25,12.87-15.16l.14-.58.12-.6-1,.64C355.87,50.07,349,58.63,347.59,62.3Z"/><path class="cls-1" d="M354.17,29.41l.77.64L355,29c.3-4.88-2.13-8.89-7.42-12.25l-.55-.36-.59-.35.37,1.28C347.82,20.76,351.35,27,354.17,29.41Z"/><path class="cls-1" d="M354.8,43.23l.33-.94a11.71,11.71,0,0,0,.6-2.86c.37-5.84-4.06-10.54-5.43-11.87l-.38-.39-.39-.37,0,1.12c-.16,3.66,2.63,11.51,4.73,14.5Z"/><path class="cls-1" d="M349.39,36.86l-.31,1a16.12,16.12,0,0,0-.46,3.93c-.12,4.67.65,10.57,1.61,12.39l.39.72.47-.68a12.24,12.24,0,0,0,2.21-6.61A17.09,17.09,0,0,0,350,37.76l-.26-.44Z"/><path class="cls-1" d="M346.94,47.68l-.61.78c-2.12,2.85-4.87,12.11-5,15.79,0,0,.06.68.06.72l.12.84.66-.4a12.24,12.24,0,0,0,6-10.53,18.28,18.28,0,0,0-.93-6.26l-.14-.46Z"/><path class="cls-1" d="M337.1,71.67l-.42.65.75.12c9.16,1.59,14-4.63,16.9-9.46l.28-.48.28-.46-1.07.17C349.92,62.84,338.81,69.14,337.1,71.67Z"/><path class="cls-1" d="M312.25,75.55c-6.18-2.57-16.11-4.23-28.86-.79l-1.45.41,1.38.56c5.85,2.38,13.12,3.08,17.37,1.67a9.51,9.51,0,0,0,3.73-2.58,18.85,18.85,0,0,1,5.8,1.67,36.57,36.57,0,0,0-10.63,8.84l-.26.35.29.29a4.88,4.88,0,0,0,1.49,1l.3.09.21-.24a39,39,0,0,1,10.63-9.31,38.37,38.37,0,0,1,10.6,9.31,1.93,1.93,0,0,1,.25.24l.31-.09a4.82,4.82,0,0,0,1.45-1l.31-.29-.29-.35a36,36,0,0,0-10.62-8.84,19.13,19.13,0,0,1,5.82-1.67,9.3,9.3,0,0,0,3.73,2.58c4.22,1.41,11.52.71,17.35-1.67l1.38-.56-1.43-.41C328.36,71.32,318.41,73,312.25,75.55Z"/><path class="cls-1" d="M327.89,71l-.12.59.59,0c9.25.79,11.47-6.38,12.33-11.85l.12-.51.07-.48-.89.45C337,61.33,328.55,68.55,327.89,71Z"/><path class="cls-1" d="M11.32,115.57,4.38,97.73H0v21.11H2.48v-19l7.47,19h2.51l7.44-19v19h2.57V97.73H18.09ZM33,97.73l-8.58,21.11h2.78l2.15-5.52H39.53l2.2,5.52h3.15L36,97.73Zm-2.88,13.45,4.23-11.09,4.38,11.09Zm25-1.12h5.06v6.23a15,15,0,0,1-2.17.47,14.82,14.82,0,0,1-2.2.17,7.2,7.2,0,0,1-3.37-.74,6.54,6.54,0,0,1-2.3-2,8.46,8.46,0,0,1-1.31-2.83,13.38,13.38,0,0,1,0-6.45,8.45,8.45,0,0,1,1.19-2.78,6.25,6.25,0,0,1,2.11-2,6.12,6.12,0,0,1,3.13-.75,5.22,5.22,0,0,1,3.19.93,4.31,4.31,0,0,1,1.6,2.87h2.66a7,7,0,0,0-.77-2.69,5.5,5.5,0,0,0-1.6-1.84A6.83,6.83,0,0,0,58,97.65a9.85,9.85,0,0,0-2.68-.35,10.12,10.12,0,0,0-4.3.85,8.82,8.82,0,0,0-3.09,2.35A10.05,10.05,0,0,0,46.05,104a14,14,0,0,0-.62,4.25,13.58,13.58,0,0,0,.67,4.35A9.92,9.92,0,0,0,48.05,116a8.63,8.63,0,0,0,3.21,2.25,11.48,11.48,0,0,0,4.43.79,19.54,19.54,0,0,0,3.58-.33c1.19-.22,2.37-.5,3.53-.83v-10H55.09ZM81.87,97.73l-6.32,10-6.42-10H65.89L74,110v8.86h2.74v-8.73l8.14-12.38Zm10.22,0-8.58,21.11h2.78l2.15-5.52H98.66l2.2,5.52H104L95.1,97.73Zm-2.88,13.45,4.23-11.09,4.38,11.09Zm31.22,5.62c-.09-.82-.17-1.59-.25-2.33S120,113,120,112.29a10.09,10.09,0,0,0-.28-1.56,3.87,3.87,0,0,0-.6-1.28,3.48,3.48,0,0,0-1.06-1,5.71,5.71,0,0,0-1.66-.62,6.6,6.6,0,0,0,3.06-1.7,4.53,4.53,0,0,0,1.15-3.27,4.42,4.42,0,0,0-2.27-4.13A7.28,7.28,0,0,0,116,98a13.74,13.74,0,0,0-2.55-.23h-7.53v21.11h2.74v-9.78h4.5a6.07,6.07,0,0,1,2.07.28,2.28,2.28,0,0,1,1.15.84,3,3,0,0,1,.49,1.43c.07.58.14,1.25.22,2s.19,1.75.29,2.63a9.76,9.76,0,0,0,.63,2.57h3.1a3,3,0,0,1-.45-.94C120.59,117.56,120.5,117.19,120.43,116.8Zm-6.33-10a16.9,16.9,0,0,1-2,.12h-3.42V99.86h4.17a13.12,13.12,0,0,1,1.79.12,4.71,4.71,0,0,1,1.57.47,2.85,2.85,0,0,1,1.13,1,3.21,3.21,0,0,1,.42,1.75,3.11,3.11,0,0,1-1.84,3.07A5.75,5.75,0,0,1,114.1,106.8Zm27-6.4a8.15,8.15,0,0,0-3-2.28,10.25,10.25,0,0,0-4.3-.82,9.65,9.65,0,0,0-4.25.87,8.38,8.38,0,0,0-3,2.37,10,10,0,0,0-1.75,3.5,15.43,15.43,0,0,0-.57,4.23,15.71,15.71,0,0,0,.55,4.25,9.93,9.93,0,0,0,1.73,3.49,8.11,8.11,0,0,0,3,2.33,11.11,11.11,0,0,0,8.57,0,8.26,8.26,0,0,0,3-2.39,9.89,9.89,0,0,0,1.72-3.52,17,17,0,0,0,0-8.59A9.18,9.18,0,0,0,141.09,100.4Zm-1,11a8.58,8.58,0,0,1-1.13,2.84,6.25,6.25,0,0,1-2.06,2,6.69,6.69,0,0,1-6.27,0,6.28,6.28,0,0,1-2-2,8.77,8.77,0,0,1-1.11-2.84,15,15,0,0,1,0-6.35,8.41,8.41,0,0,1,1.12-2.81,6.41,6.41,0,0,1,2.06-2,5.84,5.84,0,0,1,3.11-.78A5.8,5.8,0,0,1,139,102.2a8.15,8.15,0,0,1,1.09,2.8,15.45,15.45,0,0,1,0,6.4Zm22.2,5.4c-.08-.82-.17-1.59-.24-2.33s-.16-1.47-.23-2.18a10.09,10.09,0,0,0-.28-1.56,3.87,3.87,0,0,0-.6-1.28,3.37,3.37,0,0,0-1.06-1,5.71,5.71,0,0,0-1.66-.62,6.59,6.59,0,0,0,3.07-1.7,4.52,4.52,0,0,0,1.14-3.27,4.72,4.72,0,0,0-.63-2.55,4.6,4.6,0,0,0-1.64-1.58A7.1,7.1,0,0,0,157.9,98a13.67,13.67,0,0,0-2.55-.23h-7.53v21.11h2.74v-9.78h4.5a6,6,0,0,1,2.07.28,2.36,2.36,0,0,1,1.16.84,3.07,3.07,0,0,1,.49,1.43c.06.58.13,1.25.22,2s.19,1.75.28,2.63a10.61,10.61,0,0,0,.63,2.57H163a2.8,2.8,0,0,1-.44-.94C162.47,117.56,162.39,117.19,162.31,116.8Zm-6.33-10a16.77,16.77,0,0,1-2,.12h-3.42V99.86h4.18a13.09,13.09,0,0,1,1.78.12,4.64,4.64,0,0,1,1.57.47,2.85,2.85,0,0,1,1.13,1,3.21,3.21,0,0,1,.42,1.75,3.08,3.08,0,0,1-1.84,3.07A5.75,5.75,0,0,1,156,106.8ZM179.71,109a8.3,8.3,0,0,0-1.93-1c-.71-.28-1.45-.54-2.21-.8l-2.4-.81c-.39-.13-.8-.29-1.23-.47a6.71,6.71,0,0,1-1.17-.67,3.3,3.3,0,0,1-.86-.93,2.27,2.27,0,0,1-.34-1.24,3.06,3.06,0,0,1,.41-1.61,3.38,3.38,0,0,1,1.07-1.09,4.78,4.78,0,0,1,1.5-.61,7.21,7.21,0,0,1,1.65-.19,7,7,0,0,1,1.54.16,4,4,0,0,1,1.3.54,3,3,0,0,1,.93,1,3.84,3.84,0,0,1,.44,1.5h2.74a5.17,5.17,0,0,0-.63-2.55A4.9,4.9,0,0,0,179,98.57a6.2,6.2,0,0,0-2.19-.89,11.84,11.84,0,0,0-2.54-.27,11.09,11.09,0,0,0-2.7.33,7,7,0,0,0-2.37,1,5.52,5.52,0,0,0-1.69,1.81,5.34,5.34,0,0,0-.64,2.7,4.67,4.67,0,0,0,.51,2.29,4.83,4.83,0,0,0,1.35,1.56,7.62,7.62,0,0,0,1.93,1c.72.28,1.46.54,2.22.77l1.81.56c.55.17,1.07.36,1.57.56a5.61,5.61,0,0,1,1.32.75,3.5,3.5,0,0,1,.92,1,2.78,2.78,0,0,1,.35,1.41,3.12,3.12,0,0,1-.45,1.72,3.71,3.71,0,0,1-1.19,1.14,5.52,5.52,0,0,1-1.62.66,8.35,8.35,0,0,1-1.77.2,6.81,6.81,0,0,1-1.77-.22,4.31,4.31,0,0,1-1.47-.68,3.66,3.66,0,0,1-1-1.17,3.9,3.9,0,0,1-.46-1.73h-2.8a6.44,6.44,0,0,0,.74,2.75,5.46,5.46,0,0,0,1.63,1.84,6.69,6.69,0,0,0,2.3,1,11.86,11.86,0,0,0,2.79.32,12.75,12.75,0,0,0,2.86-.33,7.74,7.74,0,0,0,2.54-1.08,5.77,5.77,0,0,0,1.82-1.92,5.57,5.57,0,0,0,.7-2.85,4.78,4.78,0,0,0-.53-2.35A5,5,0,0,0,179.71,109Zm20.75-9V97.73H185.77v2.13h11.65L185,116.41v2.43h15.82V116.7H187.94Zm15.26-8h-3.15l-2.78,4.24h1.87Zm-5.37,5.78-8.58,21.11h2.78l2.15-5.52h10.22l2.19,5.52h3.15l-8.91-21.11Zm-2.88,13.45,4.23-11.09,4.38,11.09Zm25-3.26v2.14h5.06v6.23a15,15,0,0,1-2.17.47,14.85,14.85,0,0,1-2.21.17,7.18,7.18,0,0,1-3.36-.74,6.45,6.45,0,0,1-2.3-2,8.46,8.46,0,0,1-1.31-2.83,13.38,13.38,0,0,1-.05-6.45,8.45,8.45,0,0,1,1.19-2.78,6.25,6.25,0,0,1,2.11-2,6.12,6.12,0,0,1,3.13-.75,5.22,5.22,0,0,1,3.19.93,4.31,4.31,0,0,1,1.6,2.87H240a7,7,0,0,0-.77-2.69,5.42,5.42,0,0,0-1.61-1.84,6.78,6.78,0,0,0-2.27-1.06,9.85,9.85,0,0,0-2.68-.35,10.12,10.12,0,0,0-4.3.85,8.64,8.64,0,0,0-3.09,2.35,10.05,10.05,0,0,0-1.86,3.48,14,14,0,0,0-.62,4.25,13.58,13.58,0,0,0,.67,4.35,9.76,9.76,0,0,0,1.95,3.44,8.63,8.63,0,0,0,3.21,2.25,11.48,11.48,0,0,0,4.43.79,19.54,19.54,0,0,0,3.58-.33c1.19-.22,2.36-.5,3.53-.83v-10Z"/></g></g></svg>